<svg xmlns="http://www.w3.org/2000/svg" version="1.1" xmlns:xlink="http://www.w3.org/1999/xlink" width="1024" height="1024"><svg xmlns="http://www.w3.org/2000/svg" version="1.1" xmlns:xlink="http://www.w3.org/1999/xlink" width="1024" height="1024"><svg id="Layer_1" xmlns="http://www.w3.org/2000/svg" version="1.1" viewBox="0 0 1024 1024">
  <!-- Generator: Adobe Illustrator 30.0.0, SVG Export Plug-In . SVG Version: 2.1.1 Build 123)  -->
  <defs>
    <style>
      .st0 {
        fill: #463324;
      }

      .st1 {
        fill: #dfbd86;
      }
    </style>
  </defs>
  <path class="st1" d="M901.77,512c0,163.87-101.13,304.12-244.38,361.75-6.01,2.42-12.1,4.7-18.27,6.82-28.92,9.97-59.37,16.65-90.92,19.54-6.1.57-12.25.99-18.44,1.25-5.88.28-11.8.41-17.76.41s-11.85-.13-17.73-.41c-6.2-.26-12.35-.69-18.47-1.25-31.53-2.89-62-9.56-90.91-19.54-6.17-2.11-12.26-4.4-18.28-6.82-143.25-57.63-244.38-197.88-244.38-361.75,0-215.26,174.5-389.77,389.77-389.77s389.77,174.5,389.77,389.77Z"></path>
  <g>
    <path class="st0" d="M499.49,467.98v99.08c0,11.19-9.08,20.28-20.28,20.28h-52.54c-11.19,0-20.28-9.09-20.28-20.28v-99.08c0-11.2,9.09-20.28,20.28-20.28h52.54c11.2,0,20.28,9.08,20.28,20.28Z"></path>
    <path class="st0" d="M738.28,435.34l-61.96-62.09v-94.26c0-7.45-6.04-13.49-13.49-13.49h-43.85c-7.45,0-13.49,6.04-13.49,13.49v23.29l-80.53-80.69c-3.58-3.58-8.27-5.38-12.96-5.38s-9.38,1.8-12.96,5.38l-213.32,213.75c-9.04,9.05-2.63,24.51,10.16,24.51h28.83v164.91c0,10.27,8.31,18.57,18.57,18.57h337.45c10.25,0,18.56-8.31,18.56-18.57v-164.91h28.83c12.79,0,19.2-15.46,10.16-24.51ZM692.19,440.03c-7.02,0-12.71,5.69-12.71,12.71v170.78h-62.51v-157.61c0-10.05-8.16-18.2-18.22-18.2h-55.99c-10.07,0-18.22,8.15-18.22,18.2v157.61h-180.01v-170.78c0-7.02-5.69-12.71-12.71-12.71h-22.78l202.96-203.38,93.49,93.69,67.93,68.06,41.54,41.63h-22.78Z"></path>
  </g>
  <g>
    <path class="st0" d="M494.27,901.36c-6.2-.26-12.35-.69-18.47-1.25,2.23-32.87,1.19-64.85-3.1-95.29-3.41-24.2-13.85-45.91-30.17-62.77-8.85-9.14-19.82-17.94-32.57-26.17-7.93-5.1-16.86-9.79-27.33-14.33-25.71-11.15-47.44-25.22-68.39-44.28l-.59-.58c-12.14-13.21-18.5-10.19-20.58-9.19-5.97,2.85-8.73,10.12-6.28,16.54,4.07,10.63,15.95,24.9,35.3,42.38,1.39,1.27,3.01,2.51,5.1,3.94,21.64,14.65,38.59,33.69,50.4,56.6,2.34,4.53.55,10.12-3.99,12.46-4.53,2.34-10.11.55-12.46-3.99-10.37-20.12-25.29-36.86-44.32-49.77-2.81-1.9-5.09-3.66-7.13-5.51-22.14-20-34.9-35.74-40.17-49.5-4.73-12.35-1.2-26.09,7.95-34.63-5.72-8.92-11.68-19.61-18.07-32.41-3.73-7.49-7.33-15.55-10.7-23.95-19-47.48-32.5-56.37-37.43-57.98-2.18-.73-4.06-.5-6.18.74-5.22,4.1-8.59,21.1-1.18,56.01,5.94,28.02,17.6,61.68,30.41,87.84l.07.13c26.62,56.45,44.84,77.67,89.69,116.77,6.91,6.04,14.73,12.14,23.93,18.67,35.55,25.23,38.02,61.58,36.91,78.74-6.17-2.11-12.26-4.4-18.28-6.82-.13-14.68-4.53-39.24-29.33-56.83-9.71-6.9-18.01-13.38-25.38-19.82-46.3-40.37-66.43-63.8-94.23-122.77-13.42-27.43-25.64-62.7-31.88-92.08-8.42-39.69-5.47-64.93,8.76-75.07l.49-.33c6.9-4.27,14.49-5.23,22-2.76,16.53,5.43,32.49,27.9,48.81,68.68,3.17,7.93,6.57,15.51,10.08,22.55,6.62,13.28,12.7,24.06,18.46,32.79,8.81-.95,20.01,2.19,32.58,15.73,19.31,17.52,39.36,30.46,63.02,40.73,11.4,4.94,21.22,10.09,29.99,15.76,13.94,8.98,26,18.68,35.84,28.84,19.06,19.68,31.24,44.94,35.19,73.04,4.48,31.71,5.56,64.99,3.26,99.14Z"></path>
    <path class="st0" d="M838.2,582.24c-6.24,29.38-18.44,64.65-31.88,92.08-27.81,58.97-47.93,82.4-94.22,122.77-7.39,6.43-15.68,12.92-25.38,19.82-24.81,17.61-29.22,42.14-29.34,56.83-6.01,2.42-12.1,4.7-18.27,6.82-1.11-17.16,1.35-53.5,36.9-78.74,9.19-6.53,17.03-12.63,23.93-18.67,44.85-39.1,63.07-60.32,89.69-116.77l.07-.13c12.81-26.16,24.47-59.82,30.43-87.84,7.41-34.92,4.03-51.92-1.19-56.01-2.13-1.24-3.99-1.47-6.18-.74-4.93,1.61-18.42,10.5-37.43,57.98-3.37,8.4-6.96,16.46-10.7,23.95-6.39,12.8-12.35,23.49-18.07,32.41,9.17,8.53,12.68,22.27,7.95,34.63-5.27,13.77-18.03,29.5-40.17,49.5-2.05,1.85-4.31,3.61-7.13,5.51-19.04,12.91-33.95,29.65-44.32,49.77-2.34,4.54-7.91,6.33-12.46,3.99-4.54-2.34-6.33-7.93-3.99-12.46,11.81-22.91,28.77-41.95,50.4-56.6,2.09-1.43,3.71-2.67,5.11-3.94,19.34-17.48,31.22-31.75,35.3-42.38,2.44-6.42-.3-13.69-6.29-16.54-2.09-.99-8.44-4.02-20.58,9.19l-.58.58c-20.97,19.06-42.7,33.13-68.41,44.28-10.46,4.54-19.41,9.23-27.32,14.33-12.76,8.23-23.73,17.03-32.58,26.17-16.33,16.86-26.77,38.56-30.17,62.77-4.29,30.44-5.34,62.42-3.1,95.29-6.1.57-12.25.99-18.44,1.25-2.33-34.15-1.24-67.43,3.24-99.14,3.96-28.1,16.13-53.36,35.19-73.04,9.84-10.16,21.9-19.86,35.84-28.84,8.77-5.67,18.59-10.82,29.99-15.76,23.66-10.27,43.7-23.21,63.02-40.73,12.56-13.54,23.77-16.69,32.58-15.73,5.76-8.73,11.84-19.51,18.46-32.79,3.51-7.04,6.91-14.62,10.09-22.55,16.32-40.78,32.29-63.25,48.81-68.68,7.49-2.47,15.1-1.51,21.98,2.76l.49.33c14.24,10.13,17.19,35.38,8.76,75.07Z"></path>
  </g>
</svg></svg><style>@media (prefers-color-scheme: light) { :root { filter: none; } }
@media (prefers-color-scheme: dark) { :root { filter: none; } }
</style></svg>